# Alias OBJ Model File
# Exported from SketchUp, (c) 2000-2012 Trimble Navigation Limited
# File units = inches

mtllib Arbre brûlé 2.mtl

g Mesh1 Group1 V_Tree_Aspen1 Model

usemtl Color_009
v 145.547 149.081 -86.839
vt -22.3537 250.099
vn 0.860243 0.26318 -0.436713
v 141.298 148.495 -87.7588
vt -16.4014 249.06
vn -0.453173 0.0202609 -0.891192
v 136.699 160.047 -86.5209
vt -11.19 269.56
v 140.832 160.923 -85.57
vt -17.0115 271.113
f 1/1/1 2/2/2 3/3/2 4/4/1 

v 150.401 111.425 -86.9065
vt -27.8684 193.026
vn 0.895531 0.0688981 -0.439634
v 146.123 111.067 -87.8259
vt -21.8756 192.402
vn -0.441212 -0.0313061 -0.896857
vt -15.7868 257.528
vt -21.7427 258.547
f 5/5/3 6/6/4 2/7/4 1/8/3 

vt -27.7357 194.35
vn 0.897182 0.0494611 -0.438883
v 156.262 73.0692 -84.8501
vt -36.4386 127.627
vn 0.785062 0.0266605 -0.618843
vt -21.7429 193.727
vn -0.111555 -0.0684103 -0.991401
f 5/9/5 7/10/6 6/11/7

v 156.262 73.2536 -80.9351
vt 1.65077 121.811
vn 0.77906 0.132688 0.612748
vt 9.48068 121.489
vt 13.6306 188.649
v 150.403 111.552 -83.8939
vt 7.60558 188.871
vn 0.893053 0.124478 0.43239
f 8/12/8 7/13/6 5/14/5 9/15/9 

v 157.305 -0.0119574 -80.0383
vt 0.0447316 -0.400377
vn 0.899919 0.0145975 0.435812
v 157.305 -0.0506523 -84.8579
vt 9.68394 -0.467692
vn 0.786882 0.00669362 -0.617067
vt 9.66853 126.705
vn 0.899807 0.00759967 -0.436223
vt 1.83853 127.026
f 10/16/10 11/17/11 7/18/12 8/19/10 

vt -36.4526 127.088
vt -37.7706 -0.077949
v 150.675 72.8069 -86.0586
vt -28.6213 126.632
vn -0.114614 0.00541186 -0.993395
f 7/20/12 11/21/11 12/22/13

v 150.429 -0.0626096 -86.3473
vt -28.1182 -0.099741
vn -0.43809 0.00557924 -0.898914
vt -28.6088 126.631
vt -37.7578 -0.0789454
f 13/23/14 12/24/13 11/25/11

v 146.179 -0.0313048 -82.4481
vt -20.4115 0.128542
vn -0.987198 0.00957542 0.15921
v 147.222 72.8291 -82.8905
vt -21.9448 126.844
vn -0.999965 0.00841203 -0.00021507
vt -29.7768 126.805
vt -30.0508 0.0740979
f 14/26/15 15/27/16 12/28/13 13/29/14 

vt 12.6111 127.09
vt 12.5104 0.365568
v 150.675 73.1053 -79.724
vt 20.4406 127.57
vn -0.678493 0.0169646 0.734411
f 15/30/16 14/31/15 16/32/17

v 150.429 6.93889e-018 -78.549
vt 22.1624 0.419149
vn -0.438154 0.0199624 0.898678
vt 20.4541 127.569
vt 12.5231 0.364701
f 17/33/18 16/34/17 14/35/15

vt 40.7712 -0.153421
vt 40.0025 127.283
vt 32.1697 127.025
vt 31.1315 -0.132646
f 10/36/10 8/37/10 16/38/17 17/39/18 

vt 32.2096 125.006
vn -0.441714 0.0691067 0.89449
vt 40.0424 125.266
v 146.126 111.272 -82.9515
vt 28.4061 191.863
vn -0.121024 0.101908 0.987405
f 16/40/19 8/41/8 18/42/20

vt 34.4141 192.361
vt 28.4089 191.87
vt 40.0524 125.274
f 9/43/9 18/44/20 8/45/8

vt 28.3865 193.434
vn -0.43107 -0.0347999 0.901647
vt 34.392 193.922
vn 0.898596 0.0670609 0.433622
v 145.591 148.875 -83.8271
vt 28.2545 258.859
v 141.371 148.163 -82.8854
vt 22.32 257.62
f 18/46/21 9/47/22 19/48/22 20/49/21 

vt 7.6297 189.838
vt 13.6547 189.617
vt 13.5459 255.423
vt 7.52183 255.065
f 9/50/22 5/51/3 1/52/3 19/53/22 

vt 7.85305 239.884
vn 0.885673 0.144715 0.441182
vt 13.8762 240.257
vt 11.2872 261.784
v 140.797 160.919 -82.5365
vt 5.22003 261.777
f 19/54/23 1/55/1 4/56/1 21/57/23 

vt 5.21859 266.696
vn 0.865829 0.227245 0.445759
vt 11.2857 266.704
vn 0.897087 0.109323 -0.428117
v 137.137 172.385 -86.7982
vt 13.7024 287.243
v 137.039 172.574 -83.7855
vt 7.6761 287.582
f 21/58/24 4/59/25 22/60/25 23/61/24 

vt -15.9653 280.382
vt -10.1359 278.858
vn -0.379949 -0.19999 -0.903129
v 132.926 171.752 -87.7752
vt -4.5551 299.226
vt -10.5004 300.327
f 4/62/25 3/63/26 24/64/26 22/65/25 

vt -19.7026 267.64
v 134.11 159.502 -84.0751
vt -13.7206 266.658
vn -0.982364 -0.186904 -0.00528181
v 130.225 171.551 -85.3662
vt -12.5987 288.367
vt -18.6127 288.731
f 3/66/26 25/67/27 26/68/27 24/69/26 

vt -25.2869 253.318
v 138.717 147.928 -85.3154
vt -19.3122 252.317
vn -0.973851 -0.227124 -0.00528104
vt -13.6479 272.737
vt -19.6332 273.699
f 2/70/2 27/71/28 25/72/28 3/73/2 

vt -29.0442 191.591
v 143.481 110.972 -85.3816
vt -23.0187 191.426
vn -0.997138 -0.0755615 0.00268293
vt -19.1868 255.897
vt -25.1634 256.886
f 6/74/4 28/75/29 27/76/29 2/77/4 

vt -29.0539 190.786
vt -29.7544 123.881
vn -0.674467 -0.0918952 -0.732563
vt -23.0284 190.62
vn -0.985038 -0.070399 -0.157305
f 6/78/7 12/79/30 28/80/31

vt -28.5883 127.168
vt -21.7227 193.723
vt -36.4195 127.624
f 12/81/30 6/82/7 7/83/6

vt -21.9336 123.924
vn -0.998349 -0.0574054 0.0018277
vt -23.0358 190.624
vt -29.7657 123.885
f 15/84/32 28/85/31 12/86/30

vt 20.4856 126.76
vt 11.6973 193.146
vt 5.69243 192.624
vt 12.6561 126.28
f 16/87/19 18/88/20 28/89/31 15/90/32 

vt 5.83065 190.359
vt 11.8354 190.882
vt 8.18183 255.25
vt 2.17069 254.84
f 28/91/29 18/92/21 20/93/21 27/94/29 

vt 2.50566 238.996
vt 8.51548 239.424
vn -0.38582 -0.217345 0.896607
v 136.642 160.04 -81.6126
vt 6.72121 261.097
vt 0.757233 260.114
f 27/95/28 20/96/33 29/97/33 25/98/28 

vt 22.3063 257.746
vt 28.2409 258.985
vt 21.3581 279.933
vt 15.5184 278.406
f 20/99/33 19/100/23 21/101/23 29/102/33 

vt 15.5965 273.563
vn -0.469632 0.036021 0.882127
vt 21.4295 275.117
vt 17.28 295.732
v 132.768 172.058 -82.9005
vt 11.3179 294.821
f 29/103/34 21/104/24 23/105/24 30/106/34 

vt 11.3821 299.281
vn -0.453968 -0.0414783 0.890052
vt 17.3464 300.178
vn 0.891073 0.0702091 0.448397
v 135.484 183.81 -83.7421
vt 15.3383 319.726
vn 0.826142 0.0798536 0.557775
v 131.189 183.46 -82.8565
vt 9.34426 319.118
vn -0.455872 -0.0262512 0.889658
f 30/107/35 23/108/36 31/109/37 32/110/38 

vt 7.79822 296.887
vt 13.825 296.556
vn 0.901986 0.0755557 -0.425104
v 135.554 183.819 -86.7541
vt 13.7033 316.554
vn 0.841805 0.0810349 -0.533665
vt 7.67869 316.537
f 23/111/36 22/112/39 33/113/40 31/114/37 

vt -10.7404 298.978
vt -4.79512 297.877
vn -0.417379 -0.0293218 -0.908259
v 131.303 183.476 -87.7299
vt -2.77568 318.282
vn -0.57811 -0.0329819 -0.815292
vt -8.77079 318.879
f 22/115/39 24/116/41 34/117/42 33/118/40 

vt -18.6259 297.878
vt -12.6113 297.526
vn -0.996656 -0.0810345 -0.0105151
v 128.605 183.254 -85.3211
vt -11.2378 317.949
vn -0.993758 -0.070861 0.0861607
vt -17.2501 318.336
f 24/119/41 26/120/43 35/121/44 34/122/42 

vt -4.85227 296.218
vt 1.13145 297.105
vt -0.0114493 317.013
vt -6.02542 316.653
f 26/123/43 30/124/35 32/125/38 35/126/44 

vt 0.331365 273.345
vt 6.30152 274.289
vt 1.20003 295.364
vt -4.78312 294.474
f 25/127/27 29/128/34 30/129/34 26/130/27 

vt -0.0237991 317.742
v 127.953 208.277 -83.364
vt -3.33995 361.002
vn -0.456748 -0.0108998 0.889529
vt -6.0378 317.383
f 32/131/38 36/132/45 35/133/44

vt 9.33649 318.887
vt 15.3305 319.495
vt 5.50252 362.104
f 32/134/38 31/135/37 36/136/45

v 131.474 208.252 -84.0809
vt 10.4223 362.054
vn 0.889065 0.0939462 0.448037
vt 5.51357 362.097
vt 15.337 319.487
f 37/137/46 36/138/45 31/139/37

vt 10.4171 361.288
vn 0.99107 -0.094556 0.0940137
v 135.229 227.543 -83.786
vt 15.0339 394.899
vn 0.72419 -0.0695806 0.686081
vt 5.50833 361.331
vn -0.601945 0.0430574 0.797376
f 37/140/47 38/141/48 36/142/49

vt -6.89894 395.826
vt -2.41904 362.197
v 137.171 247.363 -84.3447
vt -8.42064 430.376
vn 0.944865 -0.0546746 0.322864
f 38/143/48 37/144/47 39/145/50

v 137.197 247.233 -86.2723
vt 12.768 429.165
vn 0.930614 -0.0499818 -0.362573
vt 8.91263 429.392
vt 8.26805 360.952
f 40/146/51 39/147/50 37/148/47

vt 8.78503 429.731
vn 0.895686 0.0834753 0.436783
vt 12.6405 429.506
vn 0.96596 -0.0110323 -0.258458
v 135.818 289.177 -89.1544
vt 18.3908 502.476
vn 0.895726 0.0834958 0.436695
f 39/149/52 40/150/53 41/151/54

v 135.828 289.079 -89.8949
vt 19.8523 502.306
vn 0.792316 -0.0543101 -0.607689
vt 18.371 502.478
vt 12.618 429.508
f 42/152/55 41/153/54 40/154/53

vt -11.1844 429.929
v 134.454 247.321 -86.8973
vt -7.32033 430.082
vn -0.100087 -0.100998 -0.989839
vt -7.13569 502.973
f 40/155/53 43/156/56 42/157/55

vt -7.25837 430.107
vn -0.72353 0.0969951 -0.683444
vt -11.1225 429.954
v 131.058 227.937 -87.7745
vt -2.40583 396.395
vn -0.287913 0.0487362 -0.956416
f 43/158/57 40/159/51 44/160/58

vt -11.0647 429.971
v 135.301 227.537 -86.798
vt -8.33173 395.716
vn 0.867426 -0.0807003 -0.490978
vt -2.34738 396.412
f 40/161/51 45/162/59 44/163/58

vt 17.6615 395.136
vt 17.6392 429.5
vt 10.7064 361.492
f 45/164/59 40/165/51 37/166/47

vt 8.27393 359.509
v 131.533 208.249 -86.5205
vt 13.1539 359.503
vn 0.898458 -0.111246 -0.424733
vt 13.7897 393.42
f 37/167/47 46/168/60 45/169/59

vt 7.67901 315.543
vt 13.7037 315.56
vt 13.1516 358.383
vn 0.900616 0.0925141 -0.424655
vt 8.27167 358.389
f 31/170/37 33/171/40 46/172/61 37/173/46 

vt -3.83234 361.019
vt -8.75721 318.477
v 128.048 208.272 -87.3115
vt 1.07616 361.059
vn -0.0919653 0.0152544 -0.995645
f 46/174/61 33/175/40 47/176/62

vt -2.7968 317.896
vt 1.04585 361.074
vt -8.79188 318.494
f 34/177/42 47/178/62 33/179/40

vt -13.9655 361.843
vt -17.2493 318.619
v 125.835 208.289 -85.3607
vt -9.07436 361.873
vn -0.983277 -0.0642496 -0.170409
f 47/180/62 34/181/42 48/182/63

vt -11.2402 318.226
vt -9.08098 361.868
vt -17.2525 318.613
f 35/183/44 48/184/63 34/185/42

vt -8.22337 361.02
vt -6.02733 317.38
vt -3.33262 361
f 48/186/63 35/187/44 36/188/45

vt -8.21902 361.734
vn -0.963869 0.0843325 -0.252674
vt -3.32827 361.713
v 128.364 228.192 -85.366
vt -6.28011 396.457
vn -0.994473 0.103572 -0.0172113
f 48/189/64 36/190/49 49/191/65

vt -2.92457 396.013
vt -0.989667 361.198
v 132.734 247.505 -85.3559
vt 1.77665 429.777
vn -0.970574 0.114227 0.211987
f 49/192/65 36/193/49 50/194/66

vt -5.50651 360.872
v 130.942 227.948 -82.9011
vt -3.57433 395.272
vn -0.338499 0.0591472 0.939106
vt -7.69209 429.472
f 36/195/49 51/196/67 50/197/66

vt 9.04197 395.622
vt 5.49462 361.35
vt 15.0253 394.916
f 51/198/67 36/199/49 38/200/48

vt 17.856 430.299
vt 9.06823 396.533
vt 15.0517 395.829
f 39/201/50 51/202/67 38/203/48

v 134.413 247.531 -83.7783
vt 14.0014 430.591
vn -0.448132 0.0993165 0.888434
vt 9.0623 396.533
vt 17.8495 430.299
f 52/204/68 51/205/67 39/206/50

vt 0.964933 428.386
vt -2.90372 428.341
vt -0.274064 393.994
f 52/207/68 50/208/66 51/209/67

vt 0.973851 430.2
vn -0.125867 0.160685 0.978947
v 134.752 289.207 -88.9318
vt -7.17728 502.955
vn -0.683731 0.120988 0.719635
vt -2.8948 430.155
vn -0.987783 0.0391098 0.150848
f 52/210/69 53/211/70 50/212/71

vt 17.586 500.363
vt 14.0311 427.239
vt 19.0762 500.312
f 53/213/70 52/214/69 41/215/54

vt 17.8823 426.946
vt 19.0888 500.313
vt 14.0344 427.241
f 39/216/52 41/217/54 52/218/69

v 134.102 289.126 -89.5348
vt -8.69643 502.816
vn -0.999803 0.0182939 -0.00775182
vt -2.91887 430.157
vt -7.21191 502.956
f 54/219/72 50/220/71 53/221/70

vt -14.5915 429.946
vt -22.3998 502.415
v 134.768 289.047 -90.1301
vt -23.8845 502.277
vn -0.426903 -0.090311 -0.899776
vt -18.4341 429.626
f 50/222/71 54/223/72 55/224/73 43/225/56 

vt -5.6869 502.918
vt -7.17703 502.972
vt -7.35053 430.081
f 55/226/73 42/227/55 43/228/56

vt -14.6171 426.683
vt -18.4596 426.36
vt -11.1018 392.775
f 50/229/66 43/230/57 49/231/65

vt -6.42935 361.411
vt -9.29368 396.07
vt -17.8018 429.383
f 48/232/64 49/233/65 43/234/57

vt -17.2678 392.758
vt -10.3702 358.234
vt -17.1477 426.816
f 44/235/58 48/236/64 43/237/57

vt -13.9603 360.782
vn -0.0929525 -0.0228388 -0.995409
vt -9.0692 360.812
vt -17.1207 395.084
f 47/238/74 48/239/64 44/240/58

vt -2.48386 396.799
vt -8.46805 396.1
vt 1.02399 362.53
f 44/241/58 45/242/59 47/243/74

vt -3.84626 362.484
vt 1.06224 362.524
vt -8.42441 396.096
f 46/244/60 47/245/74 45/246/59

